first trial
nRows=32
nColumns=38

# SIMM Motion File Header:
name Sujet_06_velo100.mvnx
datacolumns 38
datarows 32
otherdata 1
range 0.0000 0.5160
endheader
time pelvis_tilt  pelvis_list  pelvis_rotation  pelvis_tx  pelvis_ty  pelvis_tz  hip_flexion_r  hip_adduction_r  hip_rotation_r  knee_angle_r  ankle_angle_r  subtalar_angle_r  mtp_angle_r  hip_flexion_l  hip_adduction_l  hip_rotation_l  knee_angle_l  ankle_angle_l  subtalar_angle_l  mtp_angle_l  lumbar_extension  lumbar_bending  lumbar_rotation  arm_flex_r  arm_add_r  arm_rot_r  elbow_flex_r  pro_sup_r  wrist_flex_r  wrist_dev_r  arm_flex_l  arm_add_l  arm_rot_l  elbow_flex_l  pro_sup_l  wrist_flex_l  wrist_dev_l
0.0000	-11.7323	0.9868	-14.2624	0.0000	1.2500	-0.0000	83.2805	9.7034	1.5674	115.2581	3.8545	-11.2994	0.0000	40.5748	-5.4121	-9.5604	38.2860	-10.6657	-0.6306	0.0000	-14.8633	-1.0635	0.1561	87.5159	8.1102	18.9251	16.2388	116.6630	-9.2988	0.9325	89.3936	-7.5595	24.9309	20.6838	119.4640	-26.0308	-6.6007	
0.0160	-11.3462	1.1081	-13.7049	0.0000	1.2500	-0.0000	83.4813	10.2202	0.5280	112.9759	5.5846	-10.9718	0.0000	40.2531	-5.1212	-9.4721	41.4947	-11.6639	-0.2107	-0.0000	-15.1221	-0.9682	0.0179	87.5476	7.6426	18.4856	16.6048	117.1124	-9.4095	1.2006	89.2642	-7.5459	24.9685	20.7074	119.2788	-26.0814	-6.5435	
0.0330	-10.9590	1.2256	-13.1491	0.0000	1.2500	-0.0000	83.7028	10.7264	-0.5180	110.7415	7.3146	-10.6778	0.0000	39.9295	-4.8326	-9.3820	44.7033	-12.6701	0.2351	-0.0000	-15.3801	-0.8708	-0.1199	87.5802	7.1760	18.0453	16.9634	117.5580	-9.5203	1.4695	89.1349	-7.5323	25.0062	20.7304	119.0933	-26.1322	-6.4866	
0.0500	-10.6321	1.3531	-12.7706	0.0000	1.2500	-0.0000	83.4936	11.0728	-1.4390	107.8112	8.4479	-10.4251	0.0000	40.2053	-4.8336	-8.8951	48.7030	-13.6398	0.6623	0.0000	-15.6007	-0.8330	-0.2314	87.6547	6.8972	17.5798	17.1517	118.0088	-9.5758	1.6752	89.0508	-7.5612	25.0344	20.7243	118.9357	-26.1429	-6.4459	
0.0660	-10.3874	1.5128	-12.7047	0.0000	1.2500	-0.0000	82.7643	11.2587	-2.1402	103.8095	8.6191	-10.1770	0.0000	41.3737	-5.2800	-7.6924	53.9930	-14.6339	1.0875	0.0000	-15.7730	-0.9028	-0.2998	87.8224	6.9083	16.9588	17.0481	118.5859	-9.5343	1.7845	89.0382	-7.6687	25.0566	20.6531	118.7921	-26.0810	-6.4309	
0.0830	-10.2044	1.6867	-12.8152	0.0000	1.2500	-0.0000	81.5827	11.3007	-2.7071	99.0228	8.1945	-9.9704	0.0000	43.1649	-5.9645	-6.0707	60.0389	-15.5928	1.4792	-0.0000	-15.9086	-1.0344	-0.3427	88.0324	7.1040	16.3122	16.7795	119.1724	-9.4378	1.8293	89.0708	-7.8187	25.0696	20.5529	118.6766	-25.9786	-6.4316	
0.1000	-10.0803	1.8298	-12.8698	0.0000	1.2500	-0.0000	79.7282	11.0945	-3.2847	93.6869	7.6714	-9.8909	0.0000	45.3309	-6.6366	-4.5719	66.1240	-16.2794	1.7066	0.0000	-16.0047	-1.1492	-0.3854	88.1706	7.3623	16.0085	16.5609	119.4200	-9.3563	1.8432	89.1151	-7.9456	25.0538	20.5030	118.6601	-25.8927	-6.4352	
0.1160	-10.0260	1.9344	-12.7857	0.0000	1.2500	-0.0000	77.0234	10.5616	-4.0453	87.7425	7.3119	-10.0500	0.0000	47.8372	-7.2388	-3.4059	72.1617	-16.5980	1.6535	-0.0000	-16.0503	-1.2232	-0.4349	88.2095	7.6472	16.2477	16.4889	119.1213	-9.3222	1.8480	89.1507	-8.0448	24.9657	20.5518	118.7919	-25.8477	-6.4401	
0.1330	-10.0301	2.0080	-12.6452	0.0000	1.2500	-0.0000	73.6481	9.8208	-4.8721	81.2437	6.8575	-10.2937	-0.0000	50.7147	-7.8252	-2.3601	78.2777	-16.6374	1.4115	-0.0000	-16.0569	-1.2802	-0.4838	88.1733	7.9974	16.8311	16.4615	118.4833	-9.3029	1.8226	89.1980	-8.1210	24.8485	20.6509	119.0217	-25.8192	-6.4480	
0.1500	-10.0550	2.0266	-12.4653	0.0000	1.2500	-0.0000	69.9256	9.0490	-5.4790	74.6436	6.0126	-10.3150	0.0000	53.7989	-8.3400	-1.3679	84.0915	-16.4308	1.1728	-0.0000	-16.0561	-1.3120	-0.5364	88.0249	8.4059	17.5309	16.3955	117.7763	-9.2721	1.7365	89.2856	-8.1230	24.8120	20.7350	119.2717	-25.7910	-6.4511	
0.1660	-10.0995	1.9563	-12.2110	0.0000	1.2500	-0.0000	65.7680	8.2659	-5.7326	67.8535	4.6823	-10.0488	0.0000	57.1035	-8.7701	-0.4643	89.5561	-16.0847	1.0148	0.0000	-16.0607	-1.2988	-0.6014	87.7022	8.9306	18.4440	16.2864	116.9389	-9.2198	1.5609	89.4437	-8.0071	24.9545	20.7887	119.4781	-25.7739	-6.4568	
0.1830	-10.1655	1.8315	-11.9172	0.0000	1.2500	-0.0000	61.2705	7.4266	-5.7998	61.0359	2.9514	-9.5762	-0.0000	60.6102	-9.1163	0.3778	94.6892	-15.4938	0.8728	-0.0000	-16.0578	-1.2603	-0.6699	87.2615	9.5096	19.4783	16.1182	116.0242	-9.1570	1.3236	89.6403	-7.8157	25.1769	20.8279	119.7057	-25.7571	-6.4576	
0.2000	-10.2207	1.7297	-11.7062	0.0000	1.2500	-0.0000	57.0314	6.5681	-5.7959	55.0203	0.7815	-8.8246	-0.0000	64.1034	-9.3470	1.3134	99.2130	-14.3672	0.7405	0.0000	-16.0405	-1.2476	-0.7194	86.8548	9.9627	20.1168	15.8258	115.4753	-9.0877	1.0818	89.8116	-7.6259	25.2922	20.8342	120.0700	-25.6922	-6.4241	
0.2160	-10.2487	1.6664	-11.6054	0.0000	1.2500	-0.0000	53.1261	5.6392	-5.6458	49.8809	-2.1557	-7.6356	0.0000	67.6007	-9.4464	2.4720	103.1494	-12.4746	0.7483	-0.0000	-15.9972	-1.2785	-0.7393	86.5655	10.1917	19.9655	15.3137	115.6543	-9.0026	0.8296	89.9267	-7.4139	25.2728	20.7563	120.6504	-25.5349	-6.3529	
0.2330	-10.2651	1.6259	-11.5874	0.0000	1.2500	-0.0000	49.4845	4.6455	-5.4084	45.5481	-5.5531	-6.1520	0.0000	71.0749	-9.4211	3.7150	106.4787	-10.0411	0.7422	-0.0000	-15.9395	-1.3353	-0.7402	86.3166	10.2966	19.4143	14.7058	116.2124	-8.9093	0.5756	90.0168	-7.2045	25.1457	20.6411	121.3667	-25.3302	-6.2497	
0.2500	-10.2846	1.6376	-11.6917	0.0000	1.2500	-0.0000	46.4767	3.7257	-5.3502	42.5840	-8.4854	-4.7500	-0.0000	74.2418	-9.3126	4.8014	108.8703	-7.4658	0.3057	-0.0000	-15.8951	-1.4161	-0.7316	86.0281	10.4048	19.1181	14.2911	116.5227	-8.8375	0.3983	90.1141	-7.1479	24.8077	20.6153	122.0941	-25.1639	-6.0962	
0.2660	-10.3222	1.7427	-11.9799	0.0000	1.2500	-0.0000	44.1984	2.8810	-5.6176	41.1305	-10.6569	-3.4413	0.0000	77.1240	-9.1978	5.7006	110.2575	-4.6998	-0.8867	0.0000	-15.8715	-1.5380	-0.7137	85.6158	10.5636	19.4699	14.2588	116.2195	-8.8053	0.3441	90.2355	-7.3825	24.1336	20.7691	122.8240	-25.0898	-5.8620	
0.2830	-10.3639	1.8995	-12.3901	0.0000	1.2500	-0.0000	42.5469	2.1190	-6.0195	40.9985	-12.3555	-2.2017	0.0000	79.6971	-9.0568	6.4561	110.7043	-1.8418	-2.4493	-0.0000	-15.8605	-1.6839	-0.6864	85.1637	10.7248	20.0775	14.4145	115.6650	-8.7951	0.3644	90.3626	-7.7698	23.2496	21.0004	123.5608	-25.0547	-5.5761	
0.3000	-10.3798	2.0152	-12.7771	0.0000	1.2500	-0.0000	41.5885	1.6063	-6.2905	42.2421	-13.5016	-1.3649	0.0000	81.6099	-8.8173	6.9298	110.0769	0.5212	-3.7572	0.0000	-15.8668	-1.8002	-0.6583	84.8497	10.8812	20.4161	14.4788	115.3109	-8.7841	0.3937	90.4793	-8.0448	22.4303	21.1616	124.2041	-24.9840	-5.3083	
0.3160	-10.3585	2.0671	-13.1251	0.0000	1.2500	-0.0000	41.3969	1.4405	-6.4392	45.0753	-13.8575	-1.1977	0.0000	82.8008	-8.4455	7.0708	108.2652	2.2052	-4.6418	0.0000	-15.9021	-1.8773	-0.6295	84.7720	11.0377	20.1639	14.3552	115.4075	-8.7730	0.4310	90.5709	-8.0883	21.6707	21.2332	124.7898	-24.8212	-5.0645	
0.3330	-10.3103	2.0784	-13.4497	0.0000	1.2500	-0.0000	41.8976	1.5278	-6.4399	49.3039	-13.6477	-1.4616	0.0000	83.3385	-7.9982	6.9202	105.4064	3.4396	-5.3550	-0.0000	-15.9552	-1.9253	-0.6001	84.8345	11.1920	19.6411	14.1483	115.7036	-8.7609	0.4770	90.6573	-8.0187	20.9766	21.2497	125.2864	-24.6228	-4.8388	
0.3500	-10.2363	2.0242	-13.6519	0.0000	1.2500	-0.0000	42.9368	1.7517	-5.9793	54.3794	-13.4761	-1.7285	0.0000	83.0688	-7.5306	6.4687	101.7399	4.2972	-5.9232	-0.0000	-15.9979	-1.9197	-0.5788	84.9256	11.3302	19.2857	13.8818	115.8954	-8.7250	0.4693	90.7753	-7.9316	20.6388	21.1546	125.4970	-24.4835	-4.6832	
0.3660	-10.1222	1.8703	-13.6454	0.0000	1.2500	-0.0000	44.5422	2.1352	-4.7519	60.4002	-13.5516	-1.8037	-0.0000	81.8851	-6.9785	5.7387	97.1927	4.7497	-6.2860	0.0000	-16.0210	-1.8318	-0.5783	85.0198	11.4463	19.3035	13.5111	115.8271	-8.6434	0.3570	90.9664	-7.8598	20.8908	20.8599	125.2365	-24.4248	-4.6123	
0.3830	-9.9825	1.6505	-13.5161	0.0000	1.2500	-0.0000	46.6764	2.7095	-3.0851	67.2119	-13.6639	-1.8768	-0.0000	79.9002	-6.3792	4.7330	91.8621	4.8335	-6.4596	0.0000	-16.0337	-1.6901	-0.5860	85.1418	11.5471	19.4885	13.0753	115.6533	-8.5376	0.1927	91.1859	-7.7690	21.4978	20.4538	124.6883	-24.4241	-4.6111	
0.4000	-9.8620	1.4429	-13.4244	0.0000	1.2500	-0.0000	49.0958	3.3499	-1.6085	73.9088	-13.7857	-2.0673	-0.0000	77.2876	-5.9198	3.4016	86.2139	4.7064	-6.5466	-0.0000	-16.0355	-1.5566	-0.5716	85.2538	11.6381	19.6618	12.7229	115.5365	-8.4519	0.0698	91.3385	-7.6583	22.0481	20.1401	124.2100	-24.5094	-4.6867	
0.4160	-9.7599	1.2474	-13.4152	0.0000	1.2500	-0.0000	51.7877	4.0005	-0.5154	80.3566	-14.1461	-2.4372	-0.0000	73.9568	-5.6014	1.5307	80.2273	4.4815	-6.6398	-0.0000	-16.0286	-1.4393	-0.5221	85.3522	11.7171	19.7479	12.4956	115.5300	-8.3928	0.0227	91.4023	-7.5172	22.3975	20.0017	123.9174	-24.7147	-4.8435	
0.4330	-9.6762	1.0642	-13.4438	0.0000	1.2500	-0.0000	54.7719	4.7042	0.3704	86.7234	-14.5216	-2.8886	-0.0000	70.0013	-5.3077	-0.6786	73.8807	4.0485	-6.6509	0.0000	-16.0110	-1.3300	-0.4505	85.4404	11.7863	19.8226	12.3538	115.5818	-8.3546	0.0161	91.3993	-7.3585	22.6904	19.9536	123.6964	-25.0078	-5.0797	
0.4500	-9.6552	0.9725	-13.5359	0.0000	1.2500	-0.0000	57.8635	5.4435	0.9914	92.6364	-14.2062	-3.3124	0.0000	65.8613	-5.0886	-2.6877	67.6217	3.2245	-6.4299	0.0000	-15.9772	-1.2658	-0.3655	85.4909	11.8578	19.9341	12.3267	115.6973	-8.3634	0.0380	91.3016	-7.2207	22.9486	19.9484	123.5604	-25.3176	-5.3923	
0.4660	-9.7308	1.0437	-13.7378	0.0000	1.2500	-0.0000	61.0995	6.1874	1.2456	98.1373	-12.9197	-3.6926	0.0000	61.4793	-5.0174	-4.3836	61.3443	1.8982	-5.9175	0.0000	-15.9165	-1.2798	-0.2643	85.4733	11.9364	20.1265	12.4687	115.8923	-8.4540	0.0869	91.0833	-7.1029	23.1093	19.9753	123.6153	-25.6321	-5.8100	
0.4830	-9.8699	1.2055	-14.0031	0.0000	1.2500	-0.0000	64.4477	6.9464	1.2297	103.2212	-10.9385	-4.0887	0.0000	56.8950	-5.0091	-5.9156	55.1685	0.1687	-5.1925	-0.0000	-15.8396	-1.3389	-0.1491	85.4173	12.0165	20.3561	12.7235	116.1500	-8.5909	0.1655	90.7711	-7.0064	23.2364	20.0479	123.7551	-25.9649	-6.3047	
0.5000	-10.0162	1.3211	-14.2191	0.0000	1.2500	-0.0000	67.6172	7.7653	1.1965	107.4350	-8.3914	-4.5310	0.0000	52.6884	-5.0084	-7.1387	49.8982	-1.8375	-4.3080	-0.0000	-15.7731	-1.3806	-0.0366	85.3858	12.0946	20.5397	12.9541	116.4274	-8.6957	0.2675	90.4159	-6.9729	23.5407	20.1515	123.6738	-26.2813	-6.7844	
0.5160	-10.1691	1.3453	-14.3550	0.0000	1.2500	-0.0000	70.5413	8.6995	1.3007	110.6624	-4.9684	-4.9807	0.0000	48.9363	-5.1234	-7.9197	45.6109	-4.3415	-3.1019	0.0000	-15.7143	-1.3844	0.0657	85.3989	12.2226	20.6815	13.0860	116.7083	-8.7239	0.3951	89.9935	-7.0621	24.2075	20.2884	123.1467	-26.5826	-7.2461	
